<svg width="38" height="38" viewBox="0 0 38 38" fill="none" xmlns="http://www.w3.org/2000/svg">
<path d="M34.2837 11.6631C34.1393 11.4545 33.9466 11.284 33.7219 11.1661C33.4972 11.0483 33.2473 10.9867 32.9936 10.9867H11.5427L9.73145 6.63904C9.49467 6.06602 9.09269 5.57643 8.57671 5.23263C8.06073 4.88884 7.45411 4.70638 6.83409 4.70851H3.17236V7.84759H6.83409L14.28 25.7168C14.3992 26.0027 14.6004 26.2469 14.8582 26.4186C15.116 26.5904 15.4189 26.682 15.7287 26.682H28.2849C28.9394 26.682 29.5249 26.2755 29.7556 25.665L34.4642 13.1087C34.5532 12.8711 34.5833 12.6155 34.5518 12.3637C34.5204 12.1119 34.4284 11.8715 34.2837 11.6631ZM27.1973 23.5429H16.7755L12.8517 14.1257H30.7287L27.1973 23.5429Z" fill="white"/>
<path d="M16.5135 32.9603C17.8137 32.9603 18.8678 31.9063 18.8678 30.606C18.8678 29.3058 17.8137 28.2517 16.5135 28.2517C15.2132 28.2517 14.1592 29.3058 14.1592 30.606C14.1592 31.9063 15.2132 32.9603 16.5135 32.9603Z" fill="white"/>
<path d="M27.4998 32.9603C28.8001 32.9603 29.8541 31.9063 29.8541 30.606C29.8541 29.3058 28.8001 28.2517 27.4998 28.2517C26.1996 28.2517 25.1455 29.3058 25.1455 30.606C25.1455 31.9063 26.1996 32.9603 27.4998 32.9603Z" fill="white"/>
</svg>
