<svg width="39" height="38" viewBox="0 0 39 38" fill="none" xmlns="http://www.w3.org/2000/svg">
<path d="M19.5076 29.1148L19.3506 29.2717L19.178 29.1148C11.7227 22.3501 6.79435 17.8769 6.79435 13.3409C6.79435 10.2019 9.14865 7.84757 12.2877 7.84757C14.7048 7.84757 17.0591 9.4171 17.891 11.5517H20.8103C21.6422 9.4171 23.9965 7.84757 26.4135 7.84757C29.5526 7.84757 31.9069 10.2019 31.9069 13.3409C31.9069 17.8769 26.9786 22.3501 19.5076 29.1148ZM26.4135 4.7085C23.6826 4.7085 21.0614 5.97982 19.3506 7.97313C17.6398 5.97982 15.0187 4.7085 12.2877 4.7085C7.45355 4.7085 3.65527 8.49108 3.65527 13.3409C3.65527 19.2581 8.9917 24.108 17.0748 31.4377L19.3506 33.5095L21.6265 31.4377C29.7096 24.108 35.046 19.2581 35.046 13.3409C35.046 8.49108 31.2477 4.7085 26.4135 4.7085Z" fill="white"/>
</svg>
