<svg width="38" height="38" viewBox="0 0 38 38" fill="none" xmlns="http://www.w3.org/2000/svg">
<path fill-rule="evenodd" clip-rule="evenodd" d="M12.5567 10.9866C12.5567 9.32157 13.2181 7.7247 14.3955 6.54732C15.5729 5.36994 17.1697 4.7085 18.8348 4.7085C20.4999 4.7085 22.0967 5.36994 23.2741 6.54732C24.4515 7.7247 25.113 9.32157 25.113 10.9866C25.113 12.6517 24.4515 14.2486 23.2741 15.426C22.0967 16.6033 20.4999 17.2648 18.8348 17.2648C17.1697 17.2648 15.5729 16.6033 14.3955 15.426C13.2181 14.2486 12.5567 12.6517 12.5567 10.9866ZM12.5567 20.4039C10.4753 20.4039 8.47924 21.2307 7.00752 22.7024C5.53579 24.1741 4.70898 26.1702 4.70898 28.2515C4.70898 29.5003 5.20507 30.698 6.0881 31.581C6.97114 32.4641 8.16879 32.9601 9.41759 32.9601H28.252C29.5008 32.9601 30.6985 32.4641 31.5815 31.581C32.4646 30.698 32.9606 29.5003 32.9606 28.2515C32.9606 26.1702 32.1338 24.1741 30.6621 22.7024C29.1904 21.2307 27.1943 20.4039 25.113 20.4039H12.5567Z" fill="white"/>
</svg>
