<svg width="39" height="38" viewBox="0 0 39 38" fill="none" xmlns="http://www.w3.org/2000/svg">
<path d="M6.82861 28.2515C6.82861 26.5865 7.49006 24.9896 8.66744 23.8122C9.84482 22.6348 11.4417 21.9734 13.1068 21.9734H25.663C27.3281 21.9734 28.925 22.6348 30.1024 23.8122C31.2797 24.9896 31.9412 26.5865 31.9412 28.2515C31.9412 29.0841 31.6105 29.8825 31.0218 30.4712C30.4331 31.0599 29.6347 31.3906 28.8021 31.3906H9.96769C9.13515 31.3906 8.33672 31.0599 7.74803 30.4712C7.15934 29.8825 6.82861 29.0841 6.82861 28.2515Z" stroke="white" stroke-width="3.13907" stroke-linejoin="round"/>
<path d="M19.3844 15.6953C21.9849 15.6953 24.093 13.5872 24.093 10.9867C24.093 8.38619 21.9849 6.27808 19.3844 6.27808C16.7839 6.27808 14.6758 8.38619 14.6758 10.9867C14.6758 13.5872 16.7839 15.6953 19.3844 15.6953Z" stroke="white" stroke-width="3.13907"/>
</svg>
