<svg width="39" height="38" viewBox="0 0 39 38" fill="none" xmlns="http://www.w3.org/2000/svg">
<path d="M19.5076 29.1149L19.3506 29.2719L19.178 29.1149C11.7227 22.3502 6.79435 17.877 6.79435 13.3411C6.79435 10.202 9.14865 7.84769 12.2877 7.84769C14.7048 7.84769 17.0591 9.41723 17.891 11.5518H20.8103C21.6422 9.41723 23.9965 7.84769 26.4135 7.84769C29.5526 7.84769 31.9069 10.202 31.9069 13.3411C31.9069 17.877 26.9786 22.3502 19.5076 29.1149ZM26.4135 4.70862C23.6826 4.70862 21.0614 5.97994 19.3506 7.97325C17.6398 5.97994 15.0187 4.70862 12.2877 4.70862C7.45355 4.70862 3.65527 8.4912 3.65527 13.3411C3.65527 19.2582 8.9917 24.1081 17.0748 31.4378L19.3506 33.5096L21.6265 31.4378C29.7096 24.1081 35.046 19.2582 35.046 13.3411C35.046 8.4912 31.2477 4.70862 26.4135 4.70862Z" fill="white"/>
</svg>
