<svg width="38" height="38" viewBox="0 0 38 38" fill="none" xmlns="http://www.w3.org/2000/svg">
<path d="M34.2837 11.6633C34.1393 11.4546 33.9466 11.2841 33.7219 11.1663C33.4972 11.0485 33.2473 10.9869 32.9936 10.9868H11.5427L9.73145 6.63917C9.49467 6.06614 9.09269 5.57655 8.57671 5.23276C8.06073 4.88896 7.45411 4.70651 6.83409 4.70864H3.17236V7.84771H6.83409L14.28 25.7169C14.3992 26.0028 14.6004 26.247 14.8582 26.4188C15.116 26.5905 15.4189 26.6822 15.7287 26.6821H28.2849C28.9394 26.6821 29.5249 26.2756 29.7556 25.6651L34.4642 13.1088C34.5532 12.8712 34.5833 12.6156 34.5518 12.3638C34.5204 12.1121 34.4284 11.8717 34.2837 11.6633ZM27.1973 23.5431H16.7755L12.8517 14.1259H30.7287L27.1973 23.5431Z" fill="white"/>
<path d="M16.5135 32.9602C17.8137 32.9602 18.8678 31.9061 18.8678 30.6059C18.8678 29.3056 17.8137 28.2516 16.5135 28.2516C15.2132 28.2516 14.1592 29.3056 14.1592 30.6059C14.1592 31.9061 15.2132 32.9602 16.5135 32.9602Z" fill="white"/>
<path d="M27.4998 32.9602C28.8001 32.9602 29.8541 31.9061 29.8541 30.6059C29.8541 29.3056 28.8001 28.2516 27.4998 28.2516C26.1996 28.2516 25.1455 29.3056 25.1455 30.6059C25.1455 31.9061 26.1996 32.9602 27.4998 32.9602Z" fill="white"/>
</svg>
